<svg xmlns="http://www.w3.org/2000/svg" viewBox="0 0 500 500"><defs><style>.cls-1{fill:#fff;}.cls-2{fill:#ff4500;}</style></defs><title>ReddonLogo</title><g id="Layer_2" data-name="Layer 2"><g id="ReddonLogo"><g id="ReddonLogo-2" data-name="ReddonLogo"><g id="Background"><circle class="cls-1" cx="250" cy="250" r="172.5"/><path d="M250,78a172,172,0,1,1-121.62,50.38A170.85,170.85,0,0,1,250,78m0-1A173,173,0,1,0,423,250,173,173,0,0,0,250,77Z"/></g><g id="ReddonLogo-3" data-name="ReddonLogo"><path class="cls-2" d="M250,0C111.93,0,0,111.93,0,250S111.93,500,250,500,500,388.07,500,250,388.07,0,250,0Zm56.6,264.87V383.29H193.4V264.87H122L250,117.71,378,264.87Z"/></g></g></g></g></svg>